<?xml version="1.0" encoding="UTF-8" standalone="no"?>
<svg
   viewBox="0 0 32 32"
   width="64"
   height="64"
   version="1.1"
   id="svg4"
   sodipodi:docname="expressjs-icon.svg"
   inkscape:version="1.2.2 (b0a8486541, 2022-12-01)"
   xmlns:inkscape="http://www.inkscape.org/namespaces/inkscape"
   xmlns:sodipodi="http://sodipodi.sourceforge.net/DTD/sodipodi-0.dtd"
   xmlns="http://www.w3.org/2000/svg"
   xmlns:svg="http://www.w3.org/2000/svg">
  <defs
     id="defs8" />
  <sodipodi:namedview
     id="namedview6"
     pagecolor="#505050"
     bordercolor="#ffffff"
     borderopacity="1"
     inkscape:showpageshadow="0"
     inkscape:pageopacity="0"
     inkscape:pagecheckerboard="1"
     inkscape:deskcolor="#505050"
     showgrid="false"
     inkscape:zoom="13.609375"
     inkscape:cx="31.963261"
     inkscape:cy="32.036739"
     inkscape:window-width="1920"
     inkscape:window-height="1053"
     inkscape:window-x="0"
     inkscape:window-y="0"
     inkscape:window-maximized="1"
     inkscape:current-layer="svg4" />
  <path
     d="M32 24.795c-1.164.296-1.884.013-2.53-.957l-4.594-6.356-.664-.88-5.365 7.257c-.613.873-1.256 1.253-2.4.944l6.87-9.222-6.396-8.33c1.1-.214 1.86-.105 2.535.88l4.765 6.435 4.8-6.4c.615-.873 1.276-1.205 2.38-.883l-2.48 3.288-3.36 4.375c-.4.5-.345.842.023 1.325L32 24.795zM.008 15.427l.562-2.764C2.1 7.193 8.37 4.92 12.694 8.3c2.527 1.988 3.155 4.8 3.03 7.95H1.48c-.214 5.67 3.867 9.092 9.07 7.346 1.825-.613 2.9-2.042 3.438-3.83.273-.896.725-1.036 1.567-.78-.43 2.236-1.4 4.104-3.45 5.273-3.063 1.75-7.435 1.184-9.735-1.248C1 21.6.434 19.812.18 17.9c-.04-.316-.12-.617-.18-.92q.008-.776.008-1.552zm1.498-.38h12.872c-.084-4.1-2.637-7.012-6.126-7.037-3.83-.03-6.58 2.813-6.746 7.037z"
     id="path2" />
  <path
     style="fill:#ffffff;stroke-width:0.0734788"
     d="M 14.80597,50.470618 C 11.959817,50.165764 9.716156,49.476634 7.6928647,48.285864 3.8490984,46.023687 1.4348409,42.175807 0.58661566,36.959816 0.50117939,36.434443 0.34672722,35.558209 0.24338861,35.012629 0.0728201,34.112107 0.0567927,33.868264 0.0695211,32.367394 L 0.08354196,30.714122 0.63391787,27.995408 C 1.2657509,24.874316 1.5196638,24.030037 2.313394,22.411022 c 1.3573495,-2.76866 3.4035092,-5.05482 5.9141469,-6.607838 5.0660051,-3.133702 11.2810981,-3.09787 16.0939291,0.09279 3.543398,2.349089 5.766699,5.711602 6.647167,10.053159 0.280589,1.383573 0.411587,2.718595 0.458547,4.673143 l 0.04369,1.8186 H 17.196006 2.9211355 l 0.038501,1.561423 c 0.022225,0.901354 0.090289,1.887576 0.1610093,2.332951 0.5695248,3.586709 1.9118473,6.322753 4.1636832,8.486797 2.934245,2.819848 7.074714,3.900286 11.526234,3.007721 2.842389,-0.569921 4.615826,-1.436304 6.201726,-3.02975 1.229239,-1.235087 2.195408,-2.870655 2.872023,-4.861871 0.4857,-1.429369 0.775902,-1.854871 1.407153,-2.063203 0.300668,-0.09923 1.259118,-0.05947 1.581001,0.06558 l 0.195085,0.07579 -0.143722,0.647412 c -0.508308,2.289726 -1.414454,4.444745 -2.543115,6.048101 -0.626866,0.890517 -2.126538,2.389328 -3.030542,3.028805 -0.811877,0.574308 -2.246715,1.333674 -3.237685,1.713495 -0.860546,0.329832 -2.356444,0.718675 -3.375403,0.8774 -0.74404,0.115901 -3.302492,0.206425 -3.931114,0.139093 z M 28.771998,29.483352 c -0.176882,-2.542905 -0.729743,-4.752386 -1.652499,-6.60413 -2.577398,-5.172199 -7.480249,-7.662375 -13.158535,-6.68327 -4.6506996,0.80192 -8.1880692,3.800549 -9.9187577,8.408135 -0.5397906,1.437076 -0.9182548,3.217679 -1.0043636,4.725341 l -0.047611,0.833603 H 15.904754 28.819275 Z"
     id="path183"
     transform="scale(0.5)" />
  <path
     style="fill:#ffffff;stroke-width:0.0734788"
     d="m 33.411281,49.690136 c -0.234129,-0.04007 -0.415989,-0.100685 -0.404133,-0.134694 0.01185,-0.03401 3.088374,-4.177857 6.83671,-9.208555 3.748335,-5.030698 6.815155,-9.163557 6.815155,-9.184131 0,-0.02057 -2.862287,-3.765616 -6.360637,-8.322315 -5.988241,-7.799852 -6.350681,-8.288669 -6.190586,-8.349153 0.30171,-0.113985 1.757049,-0.151415 2.210012,-0.05684 0.667974,0.139469 1.355492,0.525759 1.86495,1.047844 0.248274,0.254429 2.640331,3.421955 5.31568,7.038947 2.67535,3.616992 4.892494,6.586782 4.926987,6.599534 0.03449,0.01275 2.340204,-3.012736 5.123803,-6.723307 3.123289,-4.163383 5.215438,-6.88716 5.464215,-7.113885 0.661804,-0.603141 1.429998,-0.912987 2.272723,-0.916688 0.459881,-0.002 1.248336,0.125568 1.343654,0.21743 0.07159,0.069 -2.829182,3.935433 -8.104586,10.802588 -2.002456,2.606659 -3.715307,4.885512 -3.806335,5.064118 -0.209143,0.410356 -0.215419,0.928089 -0.01685,1.389682 0.08176,0.190062 3.08556,4.246709 6.675105,9.01477 4.166508,5.534452 6.495751,8.687643 6.441558,8.720202 -0.04669,0.02805 -0.372049,0.09252 -0.723022,0.143263 -1.273764,0.184168 -2.410588,-0.175269 -3.26192,-1.031342 -0.236686,-0.238004 -2.571866,-3.398056 -5.251762,-7.106878 -4.907559,-6.79178 -6.053105,-8.354998 -6.144852,-8.3853 -0.02826,-0.0093 -2.546969,3.36334 -5.597122,7.494833 -3.377714,4.575183 -5.733195,7.698906 -6.025258,7.990402 -0.952867,0.951016 -1.974563,1.254051 -3.403492,1.009474 z"
     id="path185"
     transform="scale(0.5)" />
</svg>
