<?xml version="1.0" encoding="UTF-8" standalone="no"?>
<svg
   width="512px"
   height="309px"
   viewBox="0 0 512 309"
   version="1.1"
   preserveAspectRatio="xMidYMid"
   id="svg6"
   sodipodi:docname="next-js-seeklogo.com.svg"
   inkscape:version="1.2.2 (b0a8486541, 2022-12-01)"
   xmlns:inkscape="http://www.inkscape.org/namespaces/inkscape"
   xmlns:sodipodi="http://sodipodi.sourceforge.net/DTD/sodipodi-0.dtd"
   xmlns="http://www.w3.org/2000/svg"
   xmlns:svg="http://www.w3.org/2000/svg">
  <defs
     id="defs10" />
  <sodipodi:namedview
     id="namedview8"
     pagecolor="#505050"
     bordercolor="#ffffff"
     borderopacity="1"
     inkscape:showpageshadow="0"
     inkscape:pageopacity="0"
     inkscape:pagecheckerboard="1"
     inkscape:deskcolor="#505050"
     showgrid="false"
     inkscape:zoom="4"
     inkscape:cx="468"
     inkscape:cy="110"
     inkscape:window-width="1920"
     inkscape:window-height="1053"
     inkscape:window-x="0"
     inkscape:window-y="0"
     inkscape:window-maximized="1"
     inkscape:current-layer="svg6" />
  <g
     id="g4">
    <path
       d="M120.81043,80.5613102 L217.378325,80.5613102 L217.378325,88.2366589 L129.662487,88.2366589 L129.662487,146.003758 L212.147564,146.003758 L212.147564,153.679106 L129.662487,153.679106 L129.662487,217.101725 L218.384241,217.101725 L218.384241,224.777073 L120.81043,224.777073 L120.81043,80.5613102 Z M226.0292,80.5613102 L236.289538,80.5613102 L281.756922,143.983929 L328.230222,80.5613102 L391.441486,0 L287.591232,150.649363 L341.105941,224.777073 L330.443237,224.777073 L281.756922,157.314798 L232.869425,224.777073 L222.407904,224.777073 L276.324978,150.649363 L226.0292,80.5613102 Z M344.928421,88.2366588 L344.928421,80.5613102 L454.975585,80.5613102 L454.975585,88.2366589 L404.27744,88.2366589 L404.27744,224.777073 L395.425382,224.777073 L395.425382,88.2366589 L344.928421,88.2366588 Z M1.42108547e-14,80.5613102 L11.0650714,80.5613102 L163.64593,308.884007 L100.591558,224.777073 L9.25442331,91.4683847 L8.85205708,224.777073 L1.42108547e-14,224.777073 L1.42108547e-14,80.5613102 Z M454.083705,214.785469 C452.275167,214.785469 450.918762,213.38418 450.918762,211.573285 C450.918762,209.762388 452.275167,208.361099 454.083705,208.361099 C455.913774,208.361099 457.248648,209.762388 457.248648,211.573285 C457.248648,213.38418 455.913774,214.785469 454.083705,214.785469 Z M462.781915,206.334618 L467.518563,206.334618 C467.583153,208.900055 469.456284,210.624719 472.212151,210.624719 C475.290972,210.624719 477.03492,208.770705 477.03492,205.29982 L477.03492,183.310363 L481.85769,183.310363 L481.85769,205.321379 C481.85769,211.573285 478.240613,215.173518 472.255212,215.173518 C466.635824,215.173518 462.781915,211.681076 462.781915,206.334618 Z M488.166045,206.054362 L492.945754,206.054362 C493.354828,209.007848 496.239878,210.883419 500.395211,210.883419 C504.270652,210.883419 507.11264,208.878498 507.11264,206.119036 C507.11264,203.747625 505.304102,202.324777 501.191828,201.354653 L497.187209,200.384531 C491.56782,199.069474 489.005723,196.353129 489.005723,191.782772 C489.005723,186.24229 493.527071,182.555823 500.30909,182.555823 C506.617445,182.555823 511.224912,186.24229 511.504805,191.480955 L506.811217,191.480955 C506.359083,188.613703 503.861576,186.824365 500.244499,186.824365 C496.43365,186.824365 493.893085,188.656819 493.893085,191.459398 C493.893085,193.679901 495.52938,194.95184 499.577063,195.900406 L503.000368,196.741178 C509.373314,198.228702 512,200.815695 512,205.493846 C512,211.443935 507.392533,215.173518 500.029197,215.173518 C493.139526,215.173518 488.51053,211.6164 488.166045,206.054362 Z"
       fill="#000000"
       fill-rule="nonzero"
       id="path2" />
  </g>
  <path
     style="fill:#ffffff;stroke-width:0.392638"
     d="M 126.35173,258.66138 C 107.42939,233.39209 95.824734,217.48224 88.468527,206.72393 46.726718,145.67733 10.03485,92.178981 9.5758905,91.695004 9.1103725,91.204112 9.0306458,94.647776 9.0304758,115.25329 9.0303662,128.52656 8.9128442,158.60123 8.7693149,182.08589 L 8.5083532,224.78528 H 4.2541766 0 V 152.7362 80.687117 h 5.4380368 5.4380372 l 27.619604,41.325153 c 15.190785,22.72883 47.386342,70.89352 71.545682,107.03264 24.15935,36.13911 43.85021,65.78336 43.75746,65.8761 -0.0927,0.0927 -12.44393,-16.22409 -27.44709,-36.25963 z"
     id="path185" />
  <path
     style="fill:#ffffff;stroke-width:0.392638"
     d="M 120.93252,152.7362 V 80.687117 h 48.09815 48.09816 v 3.730061 3.730061 h -43.77914 -43.77914 v 29.055211 29.05522 h 41.227 41.22699 v 3.53374 3.53374 h -41.22699 -41.227 v 32 32 h 44.3681 44.3681 v 3.73006 3.73007 h -48.68712 -48.68711 z"
     id="path187" />
  <path
     style="fill:#ffffff;stroke-width:0.392638"
     d="m 223.0184,224.56178 c 0,-0.12292 12.02465,-16.75493 26.72143,-36.96002 14.69678,-20.20509 26.64471,-36.93643 26.55095,-37.18077 -0.0938,-0.24434 -11.19805,-15.81356 -24.6762,-34.59827 -13.47815,-18.784703 -24.64141,-34.374867 -24.80725,-34.644806 -0.23506,-0.38261 0.76384,-0.488308 4.53146,-0.479513 l 4.83299,0.01128 22.76597,31.785419 c 17.4132,24.31198 22.87016,31.67165 23.20913,31.3016 0.24375,-0.2661 10.85551,-14.70713 23.58169,-32.09118 18.59969,-25.407292 28.44297,-38.366102 50.18007,-66.062742 14.87285,-18.950458 27.11064,-34.386288 27.19508,-34.301844 0.0844,0.08444 -21.4213,31.448642 -47.79053,69.698218 -30.52698,44.280548 -47.83511,69.721688 -47.64414,70.031908 0.35216,0.57208 52.2588,72.49992 52.84158,73.22342 0.31232,0.38773 -0.67407,0.4908 -4.69715,0.4908 H 330.721 l -24.30529,-33.74486 c -13.3679,-18.55967 -24.47648,-33.6977 -24.68572,-33.64006 -0.20925,0.0576 -11.34054,15.23901 -24.7362,33.73637 l -24.35575,33.63156 -4.80982,0.008 c -2.6454,0.005 -4.80982,-0.0921 -4.80982,-0.215 z"
     id="path189" />
  <path
     style="fill:#ffffff;stroke-width:0.392638"
     d="M 395.77914,156.46626 V 88.147239 h -25.32515 -25.32516 v -3.730061 -3.730061 h 54.77301 54.77301 v 3.730061 3.730061 h -25.32516 -25.32515 v 68.319021 68.31902 h -4.1227 -4.1227 z"
     id="path191" />
  <path
     style="fill:#ffffff;stroke-width:0.392638"
     d="m 452.10485,213.61294 c -1.23666,-1.23666 -1.25967,-2.94038 -0.055,-4.07211 2.80434,-2.63454 6.7371,1.35208 4.01708,4.07211 -1.22828,1.22828 -2.7338,1.22828 -3.96208,0 z"
     id="path193" />
  <path
     style="fill:#ffffff;stroke-width:0.392638"
     d="m 469.10981,214.57837 c -3.04812,-0.9178 -5.42725,-3.60067 -6.0077,-6.77469 l -0.26926,-1.47239 h 2.17276 c 2.13314,0 2.18099,0.0249 2.62427,1.36809 0.68272,2.06869 2.06085,2.95093 4.60957,2.95093 1.91683,0 2.28829,-0.14247 3.4808,-1.33497 l 1.33496,-1.33497 v -12.21104 -12.21105 h 2.38108 2.38108 l -0.12341,12.26994 c -0.11609,11.54241 -0.17276,12.3747 -0.9558,14.03681 -1.0606,2.25126 -2.64896,3.73493 -4.81763,4.50009 -1.82615,0.6443 -5.04449,0.74507 -6.81072,0.21325 z"
     id="path195" />
  <path
     style="fill:#ffffff;stroke-width:0.392638"
     d="m 495.82457,214.41987 c -3.61295,-0.97263 -6.62649,-3.81598 -7.22708,-6.81893 l -0.25393,-1.26965 h 2.1193 c 2.02866,0 2.1517,0.0602 2.87687,1.40672 0.95784,1.77861 3.18291,2.93624 6.16307,3.20648 5.7246,0.51909 9.74092,-3.79967 6.79236,-7.30384 -1.04786,-1.2453 -2.50218,-1.82789 -8.00345,-3.20609 -5.25879,-1.31745 -7.21513,-2.60842 -8.45702,-5.58068 -1.39067,-3.32834 -0.0671,-7.8471 2.90086,-9.90391 4.43781,-3.0754 11.43678,-2.87308 15.31039,0.44258 1.65305,1.41495 3.14255,3.92782 3.16016,5.33138 0.007,0.57215 -0.35268,0.68711 -2.15089,0.68711 -1.60606,0 -2.1595,-0.14322 -2.1595,-0.55883 0,-0.89764 -2.01214,-3.03543 -3.40464,-3.61726 -3.0266,-1.26459 -7.9954,-0.15908 -9.17277,2.04086 -0.65542,1.22465 -0.63212,3.51743 0.044,4.33213 0.84895,1.02291 2.7059,1.78832 7.1978,2.96682 7.71893,2.02514 10.12249,4.16015 10.09948,8.97106 -0.014,2.92436 -0.81601,4.67322 -3.04151,6.63218 -2.87037,2.5266 -8.24036,3.46761 -12.79351,2.24187 z"
     id="path197" />
  <path
     style="fill:#ffffff;stroke-width:0.0981595"
     d="m 130.82957,265.0107 -30.37193,-40.5199 -4.153326,-6.06732 c -2.284328,-3.33702 -4.130817,-6.08982 -4.103311,-6.11733 0.02751,-0.0275 0.195698,0.16291 0.373757,0.42315 2.273496,3.32273 11.56323,16.13204 18.63859,25.70015 11.6438,15.74606 34.89005,46.6993 40.989,54.57836 1.2089,1.56175 1.6136,2.03072 1.6136,1.86985 0,-0.16349 -4.20838,-6.55373 -15.38193,-23.35681 -4.66277,-7.01199 -8.45877,-12.76808 -8.43556,-12.7913 0.0232,-0.0232 7.07206,10.47887 15.66408,23.33797 8.59202,12.85911 15.60321,23.39884 15.58041,23.42163 -0.0228,0.0228 -13.70881,-18.19251 -30.41338,-40.47845 z"
     id="path199" />
  <path
     style="fill:#ffffff;stroke-width:0.00433808"
     d="m 162.13274,306.86157 c -0.62199,-0.82971 -1.63318,-2.1787 -2.24711,-2.99774 l -1.11623,-1.48918 0.0548,0.001 0.0548,10e-4 0.49422,0.65505 c 1.35317,1.79351 1.8539,2.45185 1.86859,2.45674 0.01,0.003 -0.026,-0.0542 -0.20161,-0.32457 -0.23904,-0.36804 -1.42147,-2.15991 -1.7641,-2.67334 l -0.0774,-0.11605 h 0.0473 0.0473 l 1.9995,2.99219 c 1.09973,1.64571 2.00098,2.99463 2.00277,2.99761 0.002,0.004 -0.001,0.005 -0.0143,0.005 h -0.0176 z"
     id="path201" />
  <path
     style="fill:#ffffff;stroke-width:0.00390625"
     d="m 163.40507,308.559 -0.13901,-0.18534 0.0158,-0.003 c 0.009,-10e-4 0.0172,-10e-4 0.0188,6.7e-4 0.008,0.009 0.2465,0.36957 0.24507,0.371 -9.2e-4,9.2e-4 -0.0642,-0.0817 -0.14068,-0.18366 z"
     id="path203" />
  <path
     style="fill:#ffffff;stroke-width:0.03125"
     d="m 361.89509,37.695312 c 0.0747,-0.122756 28.80212,-36.71164327 28.81425,-36.69951164 0.008,0.008079 -5.67881,8.27404834 -12.63754,18.36881964 l -12.65223,18.35413 -0.13166,0.0096 c -0.0724,0.0053 -0.13166,10e-4 -0.13166,-0.0095 0,-0.0105 1.01028,-1.491391 2.24507,-3.29086 9.03309,-13.163976 15.47761,-22.620696 15.67279,-22.998322 0.10537,-0.203874 -0.0128,-0.09047 -0.43945,0.421875 -1.76893,2.124017 -11.29083,14.118917 -18.85341,23.74995 l -1.67188,2.129154 -0.11903,0.0018 c -0.0874,0.0014 -0.11271,-0.0085 -0.0953,-0.03721 z"
     id="path205" />
  <path
     style="fill:#ffffff;stroke-width:0.03125"
     d="m 361.9375,37.687191 c 0,-0.02365 0.96234,-1.25271 9.19987,-11.749691 5.0786,-6.471589 18.03047,-22.9616159 18.65965,-23.7570294 0.1526,-0.1929286 0.28337,-0.3448748 0.29058,-0.3376582 0.007,0.00722 -0.49694,0.7556923 -1.12036,1.6632793 C 387.18746,6.0971456 378.15926,19.203933 371.49266,28.875 l -6.07476,8.8125 -0.11756,0.0098 -0.11756,0.0098 0.23163,-0.337962 c 0.1274,-0.185882 0.44267,-0.647341 0.70061,-1.025466 0.25794,-0.378125 2.01558,-2.944531 3.90586,-5.703125 8.02963,-11.718115 12.70797,-18.59108 13.02441,-19.134224 0.10031,-0.172183 0.0853,-0.223327 -0.0333,-0.113295 -0.28934,0.26846 -4.04037,4.949457 -10.27712,12.825048 -2.98591,3.770518 -9.66364,12.244043 -10.4855,13.305283 -0.10983,0.141822 -0.15735,0.179688 -0.2255,0.179688 -0.0475,0 -0.0863,-0.0072 -0.0863,-0.01593 z"
     id="path207" />
  <path
     style="fill:#ffffff;stroke-width:0.03125"
     d=""
     id="path209" />
  <path
     style="fill:#ffffff;stroke-width:0.03125"
     d="m 362.17994,37.695312 c 0.0172,-0.02148 1.15505,-1.466406 2.52847,-3.210937 8.89077,-11.293141 16.37872,-20.721026 18.0372,-22.71017 0.0605,-0.07263 0.11545,-0.126688 0.122,-0.120141 0.0408,0.04076 -6.93514,10.278875 -16.17857,23.744373 l -1.60351,2.335938 h -1.46847 c -1.17065,0 -1.46211,-0.0079 -1.43712,-0.03906 z"
     id="path211" />
  <path
     style="fill:#ffffff;stroke-width:0.03125"
     d=""
     id="path213" />
  <path
     style="fill:#ffffff;stroke-width:0.03125"
     d="m 362.17989,37.695312 c 0.0172,-0.02148 1.04956,-1.332812 2.29411,-2.914062 9.87784,-12.550188 18.3359,-23.184887 18.39364,-23.127149 0.007,0.007 -0.0588,0.118669 -0.14622,0.248196 -0.0874,0.129528 -0.15892,0.249031 -0.15892,0.265563 0,0.01653 -0.0119,0.03474 -0.0264,0.04047 -0.0145,0.0057 -0.22777,0.312761 -0.47392,0.682292 -1.36704,2.052239 -8.94134,13.142575 -15.40405,22.554687 l -1.57175,2.289063 h -1.4689 c -1.17098,0 -1.46256,-0.0079 -1.43761,-0.03906 z"
     id="path215" />
  <path
     style="fill:#ffffff;stroke-width:0.03125"
     d="m 362.17938,37.695312 c 0.0169,-0.02148 1.02687,-1.304687 2.24431,-2.851562 10.20193,-12.962548 18.38435,-23.24925 18.44504,-23.188561 0.0395,0.0395 -5.79979,8.614754 -14.83258,21.782311 -1.1083,1.615625 -2.22473,3.243359 -2.48096,3.617187 l -0.46586,0.679688 h -1.47037 c -1.17187,0 -1.46411,-0.0079 -1.43958,-0.03906 z"
     id="path217" />
  <path
     style="fill:#ffffff;stroke-width:0.03125"
     d="m 362.17939,37.695312 c 0.0169,-0.02148 1.10421,-1.403125 2.41615,-3.070312 8.93234,-11.351018 16.93516,-21.424311 18.20802,-22.918766 0.15687,-0.18418 0.0484,0.005 -0.34764,0.606011 -0.23049,0.349832 -0.41096,0.644175 -0.40104,0.654095 0.01,0.0099 0.002,0.01803 -0.0178,0.01803 -0.0197,0 -0.15108,0.172266 -0.29194,0.382812 -1.43088,2.138839 -10.57547,15.518646 -16.22154,23.734375 l -0.43489,0.632813 h -1.47005 c -1.17163,0 -1.4638,-0.0079 -1.43926,-0.03906 z"
     id="path219" />
  <path
     style="fill:#ffffff;stroke-width:0.03125"
     d=""
     id="path221" />
  <path
     style="fill:#ffffff;stroke-width:0.03125"
     d=""
     id="path223" />
  <path
     style="fill:#ffffff;stroke-width:0.00552427"
     d="m 386.87119,5.8317439 c 0.004,-0.010414 4.44245,-5.66324294 4.44472,-5.66097316 0.002,0.001948 -3.88369,5.64454996 -3.899,5.66199736 -0.002,0.00256 -0.008,0.00381 -0.0129,0.00276 -0.006,-0.00138 0.12971,-0.2033856 0.49452,-0.7338653 1.97177,-2.8671812 2.81444,-4.0975484 2.80968,-4.10231348 -0.004,-0.003662 -0.0445,0.0464158 -0.25044,0.30713888 -0.5131,0.6495627 -2.38186,3.0245033 -3.10686,3.9483909 -0.36694,0.4676102 -0.45826,0.5808523 -0.46864,0.5811462 -0.007,1.988e-4 -0.0121,-0.00173 -0.0111,-0.00428 z"
     id="path225" />
</svg>
