<?xml version="1.0" encoding="UTF-8" standalone="no"?>
<svg
   class="Nav__LogoMark-sc-11gnase-3 dUeojx"
   fill="currentColor"
   viewBox="0.34 -0.059977834648891726 33.11668247084116 39.96397783464889"
   width="2047"
   height="2500"
   version="1.1"
   id="svg4"
   sodipodi:docname="prisma-3.svg"
   inkscape:version="1.2.2 (b0a8486541, 2022-12-01)"
   xmlns:inkscape="http://www.inkscape.org/namespaces/inkscape"
   xmlns:sodipodi="http://sodipodi.sourceforge.net/DTD/sodipodi-0.dtd"
   xmlns="http://www.w3.org/2000/svg"
   xmlns:svg="http://www.w3.org/2000/svg">
  <defs
     id="defs8" />
  <sodipodi:namedview
     id="namedview6"
     pagecolor="#505050"
     bordercolor="#ffffff"
     borderopacity="1"
     inkscape:showpageshadow="0"
     inkscape:pageopacity="0"
     inkscape:pagecheckerboard="1"
     inkscape:deskcolor="#505050"
     showgrid="false"
     inkscape:zoom="0.246356"
     inkscape:cx="1242.1049"
     inkscape:cy="1457.2407"
     inkscape:window-width="1920"
     inkscape:window-height="1053"
     inkscape:window-x="0"
     inkscape:window-y="0"
     inkscape:window-maximized="1"
     inkscape:current-layer="svg4" />
  <path
     d="M32.908 30.475L19.151 1.26a2.208 2.208 0 0 0-1.88-1.257 2.183 2.183 0 0 0-2.01 1.042L.34 25.212a2.26 2.26 0 0 0 .025 2.426L7.66 38.935a2.346 2.346 0 0 0 2.635.969l21.17-6.262a2.32 2.32 0 0 0 1.457-1.258 2.27 2.27 0 0 0-.013-1.91zm-3.08 1.253L11.864 37.04c-.548.163-1.074-.312-.96-.865l6.418-30.731c.12-.575.914-.666 1.165-.134l11.881 25.23a.858.858 0 0 1-.541 1.188z"
     clip-rule="evenodd"
     fill-rule="evenodd"
     id="path2" />
  <path
     style="fill:#ffffff;stroke-width:0.0464355"
     d="M 9.5035179,39.89331 C 9.1208309,39.812811 8.6304741,39.542608 8.3489013,39.257077 8.152082,39.057492 7.1393423,37.523782 4.3818395,33.249297 2.3453144,30.092419 0.62442966,27.390176 0.55765118,27.244312 0.30504606,26.69255 0.30504221,26.016263 0.55764108,25.472327 0.61592162,25.346829 3.3342417,20.918675 6.5983522,15.631986 9.862463,10.345297 13.242621,4.8705443 14.109814,3.4658685 14.977007,2.0611929 15.756899,0.82552359 15.842906,0.71993703 16.016823,0.506429 16.387188,0.24742406 16.684132,0.13164775 17.598434,-0.2248328 18.65376,0.08832448 19.267567,0.89825664 19.412778,1.0898631 33.295452,30.567325 33.368843,30.839877 c 0.06945,0.257934 0.06892,0.858026 -10e-4,1.117679 -0.185993,0.690719 -0.755266,1.325228 -1.394115,1.553872 -0.113841,0.04074 -4.302597,1.285707 -9.308351,2.766587 -5.005753,1.48088 -9.810424,2.902656 -10.677047,3.159502 -1.65908,0.491714 -2.0089511,0.555891 -2.4848139,0.455793 z m 3.2895331,-3.04453 c 0.398488,-0.117269 4.255947,-1.257474 8.572132,-2.53379 4.316186,-1.276315 8.067019,-2.384814 8.335183,-2.463333 0.638383,-0.186916 0.809378,-0.277493 0.963487,-0.510368 0.105878,-0.15999 0.127103,-0.241326 0.123979,-0.475047 -0.0037,-0.275017 -0.151811,-0.596129 -5.978189,-12.958913 C 21.523714,10.935029 18.796236,5.1781943 18.748585,5.1143626 18.542523,4.8383343 18.111124,4.8232669 17.830893,5.082311 L 17.670671,5.23042 14.440989,20.693462 c -2.4929,11.935485 -3.224985,15.51415 -3.209095,15.68707 0.01132,0.123216 0.0613,0.279936 0.111051,0.348267 0.106141,0.145769 0.450682,0.333199 0.612496,0.333199 0.0622,0 0.439123,-0.09595 0.83761,-0.213218 z"
     id="path183" />
</svg>
