<?xml version="1.0" encoding="UTF-8" standalone="no"?>
<svg
   width="64"
   height="64"
   fill="#010101"
   version="1.1"
   id="svg4"
   sodipodi:docname="socketio-icon.svg"
   inkscape:version="1.2.2 (b0a8486541, 2022-12-01)"
   xmlns:inkscape="http://www.inkscape.org/namespaces/inkscape"
   xmlns:sodipodi="http://sodipodi.sourceforge.net/DTD/sodipodi-0.dtd"
   xmlns="http://www.w3.org/2000/svg"
   xmlns:svg="http://www.w3.org/2000/svg">
  <defs
     id="defs8" />
  <sodipodi:namedview
     id="namedview6"
     pagecolor="#505050"
     bordercolor="#ffffff"
     borderopacity="1"
     inkscape:showpageshadow="0"
     inkscape:pageopacity="0"
     inkscape:pagecheckerboard="1"
     inkscape:deskcolor="#505050"
     showgrid="false"
     inkscape:zoom="13.609375"
     inkscape:cx="31.963261"
     inkscape:cy="32.036739"
     inkscape:window-width="1920"
     inkscape:window-height="1053"
     inkscape:window-x="0"
     inkscape:window-y="0"
     inkscape:window-maximized="1"
     inkscape:current-layer="svg4" />
  <path
     d="M63.988 31.295c-.174-10.7-6.14-21.118-15.37-26.604C41.346.162 32.16-1.057 23.886 1.033 11.433 4.168 1.505 15.446.243 28.3-1.325 40.44 4.815 53.066 15.308 59.292c10.276 6.444 24.253 6.183 34.3-.6 9.057-5.878 14.674-16.6 14.37-27.388zM33.77 59.25c-14.543 1.437-28.607-10.885-29-25.472-1.1-11.843 6.705-23.556 17.852-27.475C38.254.033 57.456 11.615 59.067 28.38c2.526 15.064-10.014 30.4-25.297 30.87zM24.2 30.38l21.03-17.2-11.364 17.243c-3.222 0-6.444 0-9.666-.044zm5.913 3.18l9.666.044-21.03 17.243L30.113 33.56z"
     id="path2" />
  <path
     style="fill:#ffffff;stroke-width:0.0734788"
     d="M 29.207807,63.811765 C 26.785184,63.59191 24.121736,63.048222 21.89667,62.319348 18.464722,61.195129 14.89565,59.247186 11.903559,56.865267 10.628487,55.850217 8.2580986,53.479543 7.2455149,52.206659 3.4954179,47.492544 1.1554319,42.116789 0.33692511,36.335247 -0.12130221,33.098547 0.00386928,29.00253 0.6625169,25.680827 2.3021872,17.411613 7.3572945,9.9796471 14.585534,5.2113544 18.687524,2.5053718 23.00203,0.93953058 28.143907,0.2906849 29.407223,0.13126895 33.030686,0.06652115 34.432464,0.17831442 40.305394,0.64668667 45.54713,2.5241259 50.386429,5.8925665 56.84561,10.388542 61.54511,17.494543 63.254565,25.350172 c 0.481493,2.212651 0.670108,4.072847 0.671198,6.619657 0.0015,3.58361 -0.502413,6.702438 -1.623521,10.047648 -2.749052,8.202729 -8.560186,14.890967 -16.19432,18.63861 -3.264016,1.602326 -6.528468,2.561172 -10.398787,3.054366 -1.084593,0.13821 -5.360506,0.204843 -6.501328,0.101312 z m 4.518944,-4.515279 c 2.443441,-0.163477 3.641967,-0.342075 5.400689,-0.804779 6.557919,-1.725329 12.3086,-6.086354 16.238729,-12.314625 0.662239,-1.049484 1.935079,-3.641035 2.379758,-4.845279 1.284567,-3.47876 1.849057,-7.043281 1.635122,-10.325119 C 59.243001,28.888999 58.877492,26.426011 58.454384,24.762342 56.416934,16.751065 50.185397,9.9065446 41.882893,6.5607495 38.139373,5.0521622 33.919935,4.3373867 30.23651,4.5878443 c -2.980323,0.2026497 -5.200182,0.7212285 -8.321746,1.944034 -3.578605,1.4018409 -6.403908,3.263271 -9.206906,6.0659017 -1.225696,1.225534 -1.999185,2.136097 -2.9680823,3.494068 -3.1415907,4.403142 -4.8916302,9.421953 -5.0866639,14.58767 -0.070882,1.877403 0.1378369,4.896443 0.4621227,6.684431 1.2413758,6.84447 5.5427985,13.24989 11.6746625,17.385207 1.232293,0.831057 2.130183,1.345533 3.511328,2.011935 3.203678,1.545772 6.045122,2.305749 9.714848,2.598348 0.775103,0.0618 2.20983,0.03746 3.710678,-0.06295 z"
     id="path183" />
  <path
     style="fill:#ffffff;stroke-width:0.0734788"
     d="m 24.407195,30.314635 c 0.03324,-0.09341 20.426821,-16.770324 20.463256,-16.73389 0.01588,0.01588 -2.45865,3.802993 -5.498961,8.4158 l -5.52784,8.386922 h -4.730474 c -2.909228,0 -4.721044,-0.0265 -4.705981,-0.06883 z"
     id="path185" />
  <path
     style="fill:#ffffff;stroke-width:0.0734788"
     d="m 19.104478,50.413245 c 0,-0.01646 2.170869,-3.331269 4.824153,-7.366246 2.653284,-4.034977 5.132193,-7.807504 5.508686,-8.383394 l 0.684532,-1.047072 h 4.780898 4.780897 l -0.241362,0.208154 c -0.606839,0.523346 -20.268627,16.618482 -20.301106,16.618482 -0.02018,0 -0.0367,-0.01347 -0.0367,-0.02992 z"
     id="path187" />
</svg>
